<?xml version="1.0" encoding="utf-8"?>
<!-- Generator: Adobe Illustrator 16.0.0, SVG Export Plug-In . SVG Version: 6.00 Build 0)  -->
<!DOCTYPE svg PUBLIC "-//W3C//DTD SVG 1.1//EN" "http://www.w3.org/Graphics/SVG/1.1/DTD/svg11.dtd">
<svg version="1.1" xmlns="http://www.w3.org/2000/svg" xmlns:xlink="http://www.w3.org/1999/xlink" x="0px" y="0px" width="161px"
	 height="19.188px" viewBox="0 65.875 161 19.188" enable-background="new 0 65.875 161 19.188" xml:space="preserve">
<g id="Layer_2">
</g>
<g id="Layer_1">
	<g id="Layer_1_1_" display="none">
		<rect x="-23.422" y="118.518" display="inline" width="202.413" height="79.094"/>
		<rect x="-4.875" y="52.708" display="inline" fill="none" width="164.416" height="18.5"/>
		<g display="inline">
			<text transform="matrix(1.75 0 0 1 -2.6206 70.356)" fill="#3D3D3D" font-family="'KhmerUI'" font-size="23.8403">K</text>
			
				<text transform="matrix(1.75 0 0 1 21.5806 70.356)" fill="#469AD4" font-family="'KhmerUI'" font-size="23.8403" letter-spacing="-3.429">A</text>
			
				<text transform="matrix(1.75 0 0 1 42.2329 70.356)" fill="#3D3D3D" font-family="'KhmerUI'" font-size="23.8403" letter-spacing="-2.286">V</text>
			
				<text transform="matrix(2 0 0 1 63.9736 70.3564)" fill="#3D3D3D" font-family="'KhmerUI'" font-size="23.8403" letter-spacing="-1.5">E</text>
			
				<text transform="matrix(1.75 0 0 1 84.5166 70.356)" fill="#3D3D3D" font-family="'KhmerUI'" font-size="23.8403" letter-spacing="-2.286">C</text>
			<text transform="matrix(1.75 0 0 1 106.1758 70.356)" fill="#3D3D3D" font-family="'KhmerUI'" font-size="23.8403">KA</text>
		</g>
		<rect x="9.549" y="73.5" display="inline" fill="none" width="146.099" height="19.174"/>
		
			<text transform="matrix(1 0 0 1 73.9976 79.3071)" display="inline" fill="#706C6C" font-family="'SoftLine'" font-size="8.4263" letter-spacing="2">investments</text>
		<rect x="-1.123" y="52.708" display="inline" fill="none" width="164.416" height="18.5"/>
		<g display="inline">
			<text transform="matrix(1.75 0 0 1 1.1309 70.356)" fill="#3D3D3D" font-family="'KhmerUI'" font-size="23.8403">K</text>
			
				<text transform="matrix(1.75 0 0 1 25.332 70.356)" fill="#469AD4" font-family="'KhmerUI'" font-size="23.8403" letter-spacing="-3.429">A</text>
			
				<text transform="matrix(1.75 0 0 1 45.9844 70.356)" fill="#3D3D3D" font-family="'KhmerUI'" font-size="23.8403" letter-spacing="-2.286">V</text>
			
				<text transform="matrix(2 0 0 1 67.7251 70.3564)" fill="#3D3D3D" font-family="'KhmerUI'" font-size="23.8403" letter-spacing="-1.5">E</text>
			
				<text transform="matrix(1.75 0 0 1 88.2686 70.356)" fill="#3D3D3D" font-family="'KhmerUI'" font-size="23.8403" letter-spacing="-2.286">C</text>
			<text transform="matrix(1.75 0 0 1 109.9277 70.356)" fill="#3D3D3D" font-family="'KhmerUI'" font-size="23.8403">KA</text>
		</g>
		<rect x="9.549" y="73.5" display="inline" fill="none" width="146.099" height="19.174"/>
		
			<text transform="matrix(1 0 0 1 73.9976 79.3071)" display="inline" fill="#706C6C" font-family="'SoftLine'" font-size="8.4263" letter-spacing="2">investments</text>
		<polygon display="inline" fill="#706C6C" points="41.006,63.603 40.465,62.766 40.469,62.764 		"/>
		<rect x="2.401" y="73.5" display="inline" fill="none" width="153.248" height="19.174"/>
		
			<text transform="matrix(1 0 0 1 44.6206 79.3071)" display="inline" font-family="'SoftLine'" font-size="8.4263" letter-spacing="2">investments</text>
		<rect x="2.401" y="184.169" display="inline" fill="none" width="153.248" height="19.174"/>
		
			<text transform="matrix(1 0 0 1 44.6206 189.9746)" display="inline" fill="#469AD4" font-family="'SoftLine'" font-size="8.4263" letter-spacing="2">investments</text>
		
			<text transform="matrix(0.9864 0 0 1 72.9717 94.0605)" display="inline" fill="#6D6D6D" font-family="'OpenSans'" font-size="8.8373" letter-spacing="3.041">investments</text>
		
			<text transform="matrix(0.9864 0 0 1 72.9717 175.3428)" display="inline" fill="#50C8EC" font-family="'OpenSans'" font-size="8.8373" letter-spacing="3.041">investments</text>
		<path display="inline" d="M11.372,74.918c-0.252,0.161-0.253,0.529-0.002,0.691l11.701,7.58c0.344,0.223,0.186,0.756-0.223,0.756
			h-3.25c-0.082,0-0.163-0.023-0.23-0.07L8.187,76.311c-0.421-0.288-0.68-0.481-0.775-0.582H7.406V75.1h0.006
			c0.191-0.17,0.448-0.362,0.775-0.571l10.815-7.207c0.067-0.045,0.147-0.069,0.228-0.069h2.726c0.411,0,0.568,0.536,0.222,0.757
			L11.372,74.918z"/>
		<path display="inline" d="M117.786,74.919c-0.252,0.161-0.253,0.529-0.003,0.691l11.701,7.579
			c0.344,0.223,0.187,0.757-0.223,0.757h-3.25c-0.082,0-0.162-0.024-0.23-0.071l-11.18-7.564c-0.422-0.288-0.682-0.481-0.775-0.582
			h-0.006v-0.629h0.006c0.191-0.171,0.447-0.362,0.775-0.571l10.814-7.207c0.068-0.045,0.147-0.069,0.229-0.069h2.726
			c0.411,0,0.567,0.536,0.222,0.757L117.786,74.919z"/>
		<path display="inline" d="M6.242,67.658c-0.001-0.227-0.185-0.411-0.412-0.41l-1.784,0.004c-0.227,0-0.411,0.185-0.41,0.412
			l0.037,15.871c0,0.227,0.185,0.41,0.412,0.41l1.784-0.005c0.227-0.001,0.411-0.185,0.41-0.412L6.242,67.658z"/>
		<path display="inline" d="M72.086,69.021c0.228,0,0.412-0.185,0.411-0.412l-0.003-1.355v-0.006l-2.195,0.005
			c-0.227,0-0.411,0.185-0.41,0.412l0.002,0.946c0.001,0.227,0.185,0.41,0.411,0.41H72.086z"/>
		<path display="inline" d="M72.122,83.94c0.227-0.001,0.411-0.185,0.41-0.412l-0.018-7.187l-0.003-1.357
			c0-0.227-0.184-0.41-0.411-0.41h-1.784c-0.227,0-0.412,0.185-0.411,0.412l0.003,1.355l0.017,7.193
			c0.001,0.228,0.185,0.411,0.412,0.41L72.122,83.94z"/>
		<path display="inline" d="M67.683,67.888c0.177-0.274-0.019-0.635-0.345-0.635h-2.703c-0.142,0-0.273,0.073-0.349,0.193
			l-8.13,13.019c-0.339,0.536-0.563,1.037-0.672,1.501h-0.081c-0.136-0.559-0.333-1.051-0.591-1.478L46.845,67.45
			c-0.075-0.122-0.208-0.197-0.351-0.197h-2.831c-0.324,0-0.521,0.358-0.347,0.631l10.071,15.871c0.076,0.119,0.207,0.19,0.347,0.19
			h3.319c0.14,0,0.27-0.07,0.345-0.187L67.683,67.888z"/>
		<path display="inline" d="M46.784,83.946h2.703c0.326,0,0.522-0.361,0.345-0.635L39.547,67.441
			c-0.076-0.117-0.206-0.188-0.345-0.188h-3.319c-0.141,0-0.272,0.072-0.347,0.19L25.464,83.314
			c-0.173,0.274,0.023,0.632,0.347,0.632h2.832c0.143,0,0.276-0.075,0.351-0.196l7.967-13.039c0.258-0.427,0.455-0.92,0.591-1.479
			h0.082c0.108,0.466,0.333,0.966,0.672,1.502l8.13,13.019C46.51,83.873,46.642,83.946,46.784,83.946z"/>
		<path display="inline" d="M153.268,83.946h2.703c0.326,0,0.522-0.361,0.346-0.635l-10.285-15.871
			c-0.076-0.117-0.205-0.188-0.345-0.188h-3.319c-0.141,0-0.271,0.072-0.348,0.19l-10.07,15.871
			c-0.174,0.274,0.022,0.632,0.347,0.632h2.831c0.144,0,0.276-0.075,0.352-0.196l7.967-13.039c0.258-0.427,0.455-0.92,0.591-1.479
			h0.081c0.109,0.466,0.333,0.966,0.672,1.502l8.131,13.019C152.994,83.873,153.126,83.946,153.268,83.946z"/>
		<path display="inline" d="M73.356,69.023h13.489c0.238,0,0.431-0.185,0.431-0.413l-0.004-0.947c-0.001-0.227-0.193-0.41-0.43-0.41
			H70.319c-0.238,0-0.431,0.185-0.43,0.412l0.002,0.945c0.001,0.227,0.193,0.41,0.43,0.41h3.035V69.023z"/>
		<path display="inline" d="M73.374,76.343h13.488c0.238,0,0.432-0.185,0.431-0.412l-0.003-0.948
			c-0.002-0.227-0.193-0.41-0.431-0.41H70.336c-0.238,0-0.431,0.185-0.43,0.412l0.002,0.945c0,0.227,0.193,0.41,0.43,0.41h3.035
			V76.343L73.374,76.343z"/>
		<path display="inline" d="M87.316,83.533c0,0.228-0.193,0.412-0.431,0.412H73.398v-0.002h-3.035c-0.237,0-0.429-0.184-0.43-0.41
			l-0.003-0.945c0-0.227,0.192-0.412,0.43-0.412h16.522c0.237,0,0.43,0.184,0.43,0.41L87.316,83.533z"/>
		<g display="inline">
			<path d="M111.418,70.714c0.229,0,0.412-0.185,0.412-0.412l-0.002-0.56v-1.381c0-0.227-0.184-0.411-0.41-0.411h-1.404
				c-0.227,0-0.411,0.184-0.411,0.411v1.942c0,0.227,0.185,0.411,0.411,0.411H111.418z"/>
			<path d="M111.834,80.583c0-0.227-0.184-0.411-0.41-0.411h-1.406c-0.227,0-0.41,0.184-0.41,0.411v1.545
				c0,0.227,0.184,0.411,0.41,0.411h1.406c0.227,0,0.41-0.185,0.41-0.411V80.583z"/>
			<path d="M96.748,70.665c-2.084,1.28-3.127,2.99-3.127,5.132c0,2.035,0.975,3.654,2.923,4.86c1.948,1.206,4.505,1.811,7.67,1.811
				c1.978,0,3.775-0.169,5.394-0.507c0.59-0.123,1.154-0.268,1.695-0.436c0.264-0.082,0.529,0.115,0.529,0.392v1.021
				c0,0.184-0.119,0.346-0.295,0.396c-2.107,0.596-4.698,0.891-7.771,0.891c-4.155,0-7.482-0.764-9.982-2.293
				c-2.498-1.527-3.748-3.533-3.748-6.018c0-2.67,1.406-4.828,4.217-6.472c2.813-1.646,6.377-2.468,10.695-2.468
				c2.613,0,4.804,0.205,6.57,0.611c0.186,0.043,0.314,0.21,0.314,0.401v1.759c-0.002,0-0.002,0-0.004-0.002
				c-0.715-0.228-1.457-0.417-2.226-0.567c-1.472-0.288-3.038-0.432-4.696-0.432C101.553,68.743,98.834,69.385,96.748,70.665z"/>
		</g>
		<g display="inline">
			<path fill="#FFFFFF" d="M11.372,155.799l10.806-6.907c0.346-0.222,0.189-0.757-0.221-0.757H19.23
				c-0.081,0-0.161,0.023-0.228,0.068L8.187,155.41c-0.327,0.209-0.584,0.4-0.775,0.57H7.406v0.629h0.006
				c0.095,0.102,0.354,0.295,0.775,0.582l11.181,7.564c0.068,0.047,0.148,0.07,0.23,0.07h3.249c0.41,0,0.567-0.533,0.224-0.756
				l-11.701-7.58C11.119,156.328,11.12,155.96,11.372,155.799z"/>
			<path fill="#FFFFFF" d="M117.786,155.8l10.806-6.907c0.346-0.223,0.189-0.758-0.222-0.758h-2.726
				c-0.081,0-0.16,0.023-0.229,0.068l-10.814,7.207c-0.328,0.209-0.584,0.4-0.775,0.571h-0.006v0.629h0.006
				c0.094,0.101,0.354,0.294,0.775,0.581l11.18,7.564c0.068,0.047,0.148,0.071,0.23,0.071h3.25c0.409,0,0.566-0.533,0.223-0.757
				l-11.701-7.579C117.533,156.328,117.534,155.961,117.786,155.8z"/>
			<path fill="#FFFFFF" d="M6.242,148.539l0.037,15.87c0.001,0.228-0.183,0.411-0.41,0.412l-1.784,0.005
				c-0.227,0-0.412-0.184-0.412-0.41l-0.037-15.871c0-0.227,0.183-0.411,0.41-0.412l1.784-0.004
				C6.057,148.129,6.241,148.313,6.242,148.539z"/>
			<path fill="#FFFFFF" d="M72.086,149.902h-1.784c-0.227,0-0.411-0.184-0.411-0.41l-0.002-0.947c0-0.227,0.183-0.411,0.41-0.412
				l2.195-0.005v0.007l0.003,1.355C72.498,149.717,72.313,149.902,72.086,149.902z"/>
			<path fill="#FFFFFF" d="M72.122,164.821l-1.784,0.005c-0.227,0-0.411-0.184-0.412-0.41l-0.017-7.193l-0.003-1.355
				c0-0.228,0.184-0.412,0.411-0.412h1.784c0.227,0,0.41,0.184,0.411,0.41l0.003,1.357l0.018,7.187
				C72.533,164.637,72.349,164.82,72.122,164.821z"/>
			<path fill="#FFFFFF" d="M67.683,148.77l-10.284,15.87c-0.076,0.116-0.206,0.188-0.345,0.188h-3.319
				c-0.141,0-0.271-0.071-0.347-0.19l-10.071-15.871c-0.174-0.273,0.023-0.631,0.347-0.631h2.831c0.144,0,0.276,0.074,0.351,0.196
				l7.967,13.038c0.257,0.428,0.455,0.92,0.591,1.479h0.081c0.109-0.465,0.333-0.966,0.672-1.502l8.13-13.019
				c0.075-0.12,0.207-0.193,0.349-0.193h2.703C67.664,148.135,67.86,148.495,67.683,148.77z"/>
			<path fill="#FFFFFF" d="M46.784,164.827c-0.142,0-0.273-0.073-0.349-0.193l-8.13-13.019c-0.339-0.535-0.563-1.037-0.672-1.502
				h-0.082c-0.136,0.559-0.333,1.051-0.591,1.479l-7.967,13.039c-0.075,0.121-0.208,0.195-0.351,0.195h-2.832
				c-0.324,0-0.521-0.357-0.347-0.631l10.072-15.871c0.075-0.118,0.206-0.19,0.347-0.19h3.319c0.139,0,0.269,0.071,0.345,0.188
				l10.284,15.871c0.177,0.273-0.019,0.634-0.345,0.634L46.784,164.827L46.784,164.827z"/>
			<path fill="#FFFFFF" d="M153.268,164.827c-0.142,0-0.273-0.073-0.348-0.193l-8.131-13.019c-0.339-0.535-0.563-1.037-0.672-1.502
				h-0.081c-0.136,0.559-0.333,1.051-0.591,1.479l-7.967,13.039c-0.075,0.121-0.208,0.195-0.352,0.195h-2.831
				c-0.324,0-0.521-0.357-0.347-0.631l10.07-15.871c0.076-0.118,0.207-0.19,0.348-0.19h3.319c0.14,0,0.27,0.071,0.345,0.188
				l10.285,15.871c0.177,0.273-0.02,0.634-0.346,0.634L153.268,164.827L153.268,164.827z"/>
			<path fill="#FFFFFF" d="M73.356,149.904v-0.002h-3.035c-0.237,0-0.43-0.184-0.43-0.41l-0.002-0.945
				c-0.001-0.229,0.192-0.412,0.43-0.412h16.523c0.236,0,0.429,0.183,0.43,0.409l0.004,0.947c0,0.228-0.192,0.413-0.431,0.413
				H73.356z"/>
			<path fill="#FFFFFF" d="M73.374,157.225v-0.002h-3.035c-0.237,0-0.429-0.184-0.43-0.41l-0.002-0.945
				c0-0.228,0.192-0.412,0.43-0.412h16.522c0.237,0,0.429,0.183,0.431,0.409l0.003,0.948c0.001,0.227-0.192,0.412-0.43,0.412H73.374
				z"/>
			<path fill="#FFFFFF" d="M87.316,164.414l-0.004-0.947c0-0.227-0.192-0.41-0.43-0.41H70.36c-0.238,0-0.431,0.186-0.43,0.412
				l0.003,0.945c0,0.227,0.193,0.41,0.43,0.41h3.035v0.002h13.488C87.123,164.826,87.316,164.642,87.316,164.414z"/>
			<g>
				<path fill="#FFFFFF" d="M111.418,151.596h-1.404c-0.227,0-0.411-0.185-0.411-0.412v-1.941c0-0.228,0.185-0.411,0.411-0.411
					h1.404c0.227,0,0.41,0.184,0.41,0.411v1.381l0.002,0.561C111.83,151.41,111.646,151.596,111.418,151.596z"/>
				<path fill="#FFFFFF" d="M111.834,161.465v1.545c0,0.227-0.184,0.411-0.41,0.411h-1.406c-0.227,0-0.41-0.185-0.41-0.411v-1.545
					c0-0.229,0.184-0.412,0.41-0.412h1.406C111.65,161.053,111.834,161.236,111.834,161.465z"/>
				<path fill="#FFFFFF" d="M96.748,151.546c2.086-1.28,4.805-1.922,8.158-1.922c1.658,0,3.225,0.144,4.696,0.432
					c0.769,0.149,1.511,0.339,2.226,0.567c0.002,0.002,0.002,0.002,0.004,0.002v-1.759c0-0.19-0.129-0.358-0.314-0.401
					c-1.767-0.405-3.957-0.61-6.57-0.61c-4.318,0-7.883,0.822-10.695,2.468c-2.811,1.645-4.217,3.803-4.217,6.473
					c0,2.484,1.25,4.49,3.748,6.018c2.5,1.529,5.827,2.293,9.982,2.293c3.073,0,5.664-0.295,7.771-0.891
					c0.176-0.051,0.295-0.213,0.295-0.396v-1.021c0-0.276-0.266-0.474-0.529-0.392c-0.541,0.168-1.105,0.313-1.695,0.436
					c-1.618,0.338-3.416,0.507-5.394,0.507c-3.165,0-5.722-0.604-7.67-1.811s-2.923-2.825-2.923-4.86
					C93.621,154.536,94.664,152.826,96.748,151.546z"/>
			</g>
		</g>
	</g>
	<path fill="#FFFFFF" d="M5.676,84.494h-1.85c-0.227,0-0.411-0.184-0.411-0.41V67.208c0-0.227,0.184-0.411,0.411-0.411h1.85
		c0.227,0,0.411,0.184,0.411,0.411v16.876C6.087,84.311,5.903,84.494,5.676,84.494z"/>
	<g>
		<path fill="#FFFFFF" d="M23.778,84.494h-3.31c-0.082,0-0.162-0.024-0.229-0.07L7.382,75.78c-0.242-0.163-0.242-0.52,0-0.683
			l12.254-8.231c0.068-0.045,0.147-0.07,0.229-0.07h3.32c0.406,0,0.566,0.525,0.229,0.752l-11.243,7.565
			c-0.242,0.163-0.242,0.52,0,0.682l11.833,7.946C24.344,83.968,24.184,84.494,23.778,84.494z"/>
	</g>
	<g>
		<path fill="#FFFFFF" d="M129.871,84.494h-3.299c-0.082,0-0.162-0.025-0.23-0.071l-12.768-8.642
			c-0.241-0.164-0.24-0.52,0.002-0.682l12.298-8.233c0.067-0.045,0.147-0.069,0.229-0.069h3.326c0.406,0,0.566,0.526,0.229,0.752
			l-11.291,7.566c-0.242,0.162-0.244,0.518-0.002,0.682l11.736,7.945C130.438,83.969,130.277,84.494,129.871,84.494z"/>
	</g>
	<path fill="#6F45BF" d="M50.512,84.494h-2.207c-0.139,0-0.269-0.07-0.345-0.188L38.416,69.63c-0.163-0.25-0.529-0.249-0.69,0.002
		l-9.412,14.673c-0.076,0.117-0.206,0.189-0.346,0.189h-2.196c-0.325,0-0.521-0.359-0.346-0.633L36.25,66.985
		c0.076-0.118,0.206-0.189,0.346-0.189h2.938c0.139,0,0.269,0.07,0.344,0.187l10.979,16.875
		C51.034,84.132,50.838,84.494,50.512,84.494z"/>
	<path fill="#FFFFFF" d="M156.696,84.494h-2.205c-0.14,0-0.269-0.07-0.345-0.188l-9.522-14.676c-0.163-0.25-0.529-0.25-0.69,0.002
		l-9.416,14.672c-0.076,0.117-0.207,0.189-0.346,0.189h-1.992c-0.326,0-0.521-0.359-0.346-0.633l10.83-16.876
		c0.076-0.118,0.206-0.189,0.346-0.189h2.729c0.14,0,0.269,0.07,0.345,0.188l10.957,16.875
		C157.219,84.133,157.021,84.494,156.696,84.494z"/>
	<path fill="#FFFFFF" d="M68.146,67.431L57.188,84.307c-0.076,0.117-0.206,0.188-0.345,0.188h-2.822
		c-0.14,0-0.271-0.072-0.346-0.189L42.862,67.429c-0.175-0.273,0.021-0.633,0.346-0.633h2.197c0.14,0,0.271,0.071,0.346,0.189
		l9.342,14.586c0.161,0.252,0.529,0.253,0.691,0.002l9.469-14.59c0.076-0.117,0.205-0.188,0.345-0.188h2.203
		C68.126,66.796,68.323,67.158,68.146,67.431z"/>
	<path fill="#FFFFFF" d="M86.904,69.474H70.3c-0.228,0-0.411-0.184-0.411-0.411v-1.85c0-0.227,0.184-0.411,0.411-0.411h16.604
		c0.228,0,0.412,0.184,0.412,0.411v1.85C87.316,69.29,87.132,69.474,86.904,69.474z"/>
	<path fill="#FFFFFF" d="M72.602,77.206v4.005c0,0.229,0.184,0.412,0.411,0.412h13.85c0.227,0,0.411,0.184,0.411,0.41v2.056
		c0,0.228-0.185,0.411-0.411,0.411H70.342c-0.228,0-0.411-0.184-0.411-0.411v-9.555c0-0.227,0.184-0.411,0.411-0.411h16.521
		c0.227,0,0.411,0.184,0.411,0.411v1.85c0,0.227-0.185,0.411-0.411,0.411h-13.85C72.786,76.795,72.602,76.979,72.602,77.206z"/>
	<path fill="#FFFFFF" d="M111.418,70.714c0.229,0,0.412-0.185,0.412-0.412l-0.002-0.56v-1.381c0-0.227-0.184-0.411-0.41-0.411
		h-1.404c-0.227,0-0.411,0.184-0.411,0.411v1.942c0,0.227,0.185,0.411,0.411,0.411H111.418z"/>
	<path fill="#FFFFFF" d="M111.834,80.583c0-0.227-0.184-0.411-0.41-0.411h-1.406c-0.227,0-0.41,0.184-0.41,0.411v1.545
		c0,0.227,0.184,0.411,0.41,0.411h1.406c0.227,0,0.41-0.185,0.41-0.411V80.583z"/>
	<path fill="#FFFFFF" d="M96.748,70.665c-2.084,1.28-3.127,2.99-3.127,5.132c0,2.035,0.975,3.654,2.923,4.86
		c1.948,1.206,4.505,1.811,7.67,1.811c1.978,0,3.775-0.169,5.394-0.507c0.59-0.123,1.154-0.268,1.695-0.436
		c0.264-0.082,0.529,0.115,0.529,0.392v1.021c0,0.184-0.119,0.346-0.295,0.396c-2.107,0.596-4.698,0.891-7.771,0.891
		c-4.155,0-7.482-0.764-9.982-2.293c-2.498-1.527-3.748-3.533-3.748-6.018c0-2.67,1.406-4.828,4.217-6.472
		c2.813-1.646,6.377-2.468,10.695-2.468c2.613,0,4.804,0.205,6.57,0.611c0.186,0.043,0.314,0.21,0.314,0.401v1.759
		c-0.002,0-0.002,0-0.004-0.002c-0.715-0.228-1.457-0.417-2.226-0.567c-1.472-0.288-3.038-0.432-4.696-0.432
		C101.553,68.743,98.834,69.385,96.748,70.665z"/>
</g>
</svg>
