<?xml version="1.0" encoding="utf-8"?>
<!-- Generator: Adobe Illustrator 23.0.1, SVG Export Plug-In . SVG Version: 6.00 Build 0)  -->
<svg version="1.1" xmlns="http://www.w3.org/2000/svg" xmlns:xlink="http://www.w3.org/1999/xlink" x="0px" y="0px"
	 viewBox="0 0 783.38 176.451" enable-background="new 0 0 783.38 176.451" xml:space="preserve">
<g id="Layer_1" display="none">
	<rect x="-113.967" y="273.211" display="inline" width="984.883" height="384.845"/>
	<rect x="-23.718" y="-47" display="inline" fill="none" width="800" height="90.014"/>
	<g>
		
			<text transform="matrix(1.75 0 0 1 -12.7515 38.8672)" display="inline" fill="#3D3D3D" font-family="'KhmerUI'" font-size="116px">K</text>
		
			<text transform="matrix(1.75 0 0 1 105.0043 38.8672)" display="inline" fill="#469AD4" font-family="'KhmerUI'" font-size="116px" letter-spacing="-17.143">A</text>
		
			<text transform="matrix(1.75 0 0 1 205.4931 38.8672)" display="inline" fill="#3D3D3D" font-family="'KhmerUI'" font-size="116px" letter-spacing="-11.429">V</text>
		
			<text transform="matrix(2 0 0 1 311.2753 38.8672)" display="inline" fill="#3D3D3D" font-family="'KhmerUI'" font-size="116px" letter-spacing="-8.5">E</text>
		
			<text transform="matrix(1.75 0 0 1 411.2348 38.8672)" display="inline" fill="#3D3D3D" font-family="'KhmerUI'" font-size="116px" letter-spacing="-11.429">C</text>
		
			<text transform="matrix(1.75 0 0 1 516.6205 38.8672)" display="inline" fill="#3D3D3D" font-family="'KhmerUI'" font-size="116px">KA</text>
	</g>
	<rect x="46.465" y="54.169" display="inline" fill="none" width="710.873" height="93.296"/>
	<text transform="matrix(1 0 0 1 360.0493 82.418)" fill="#706C6C" font-family="'SoftLine'" font-size="41px" letter-spacing="12">investments</text>
	<rect x="-5.465" y="-47" display="inline" fill="none" width="800" height="90.014"/>
	<g>
		<text transform="matrix(1.75 0 0 1 5.502 38.8672)" display="inline" fill="#3D3D3D" font-family="'KhmerUI'" font-size="116px">K</text>
		
			<text transform="matrix(1.75 0 0 1 123.2579 38.8672)" display="inline" fill="#469AD4" font-family="'KhmerUI'" font-size="116px" letter-spacing="-17.143">A</text>
		
			<text transform="matrix(1.75 0 0 1 223.7466 38.8672)" display="inline" fill="#3D3D3D" font-family="'KhmerUI'" font-size="116px" letter-spacing="-11.429">V</text>
		
			<text transform="matrix(2 0 0 1 329.5289 38.8672)" display="inline" fill="#3D3D3D" font-family="'KhmerUI'" font-size="116px" letter-spacing="-8.5">E</text>
		
			<text transform="matrix(1.75 0 0 1 429.4883 38.8672)" display="inline" fill="#3D3D3D" font-family="'KhmerUI'" font-size="116px" letter-spacing="-11.429">C</text>
		
			<text transform="matrix(1.75 0 0 1 534.8741 38.8672)" display="inline" fill="#3D3D3D" font-family="'KhmerUI'" font-size="116px">KA</text>
	</g>
	<rect x="46.465" y="54.169" display="inline" fill="none" width="710.873" height="93.296"/>
	<text transform="matrix(1 0 0 1 360.0493 82.418)" fill="#706C6C" font-family="'SoftLine'" font-size="41px" letter-spacing="12">investments</text>
	<polygon fill="#706C6C" points="199.522,6.008 196.892,1.938 196.912,1.928 	"/>
	<rect x="11.682" y="54.169" display="inline" fill="none" width="745.656" height="93.296"/>
	<text transform="matrix(1 0 0 1 217.1084 82.4185)" font-family="'SoftLine'" font-size="41px" letter-spacing="12">investments</text>
	<rect x="11.682" y="592.648" display="inline" fill="none" width="745.656" height="93.296"/>
	
		<text transform="matrix(1 0 0 1 217.1084 620.8973)" fill="#469AD4" font-family="'SoftLine'" font-size="41px" letter-spacing="12">investments</text>
	
		<text transform="matrix(0.9864 0 0 1 355.058 154.2114)" display="inline" fill="#6D6D6D" font-family="'OpenSans'" font-size="43px" letter-spacing="16.22">investments</text>
	
		<text transform="matrix(0.9864 0 0 1 355.058 549.7043)" display="inline" fill="#50C8EC" font-family="'OpenSans'" font-size="43px" letter-spacing="16.22">investments</text>
	<path display="inline" d="M55.334,61.067c-1.226,0.784-1.231,2.573-0.01,3.364l56.933,36.882c1.672,1.083,0.905,3.679-1.087,3.679
		H95.358c-0.399,0-0.79-0.12-1.121-0.344L39.835,67.841c-2.05-1.4-3.31-2.34-3.77-2.83h-0.03v-3.06h0.03
		c0.93-0.83,2.18-1.76,3.77-2.78l52.626-35.064c0.328-0.219,0.714-0.336,1.109-0.336h13.263c1.999,0,2.761,2.609,1.077,3.685
		L55.334,61.067z"/>
	<path display="inline" d="M573.113,61.069c-1.226,0.784-1.231,2.573-0.01,3.364l56.933,36.882c1.672,1.083,0.905,3.679-1.087,3.679
		h-15.811c-0.4,0-0.79-0.12-1.121-0.344l-54.402-36.807c-2.05-1.4-3.31-2.34-3.77-2.83h-0.03v-3.06h0.03
		c0.93-0.83,2.18-1.76,3.77-2.78l52.626-35.064c0.328-0.219,0.714-0.336,1.109-0.336h13.263c1.999,0,2.761,2.609,1.077,3.685
		L573.113,61.069z"/>
	<path display="inline" d="M30.372,25.741c-0.003-1.105-0.9-1.998-2.005-1.995l-8.681,0.02c-1.105,0.003-1.998,0.9-1.995,2.005
		l0.18,77.22c0.003,1.105,0.9,1.998,2.005,1.995l8.681-0.02c1.105-0.003,1.998-0.9,1.995-2.005L30.372,25.741z"/>
	<path display="inline" d="M350.75,32.371c1.106,0,2.003-0.898,2-2.005l-0.015-6.595v-0.03l-10.68,0.025
		c-1.105,0.003-1.998,0.9-1.995,2.005l0.011,4.605c0.003,1.103,0.897,1.995,2,1.995H350.75z"/>
	<path display="inline" d="M350.925,104.965c1.105-0.003,1.998-0.9,1.995-2.005l-0.085-34.97l-0.015-6.605
		c-0.003-1.103-0.897-1.995-2-1.995h-8.68c-1.106,0-2.003,0.898-2,2.005l0.015,6.595l0.085,35c0.003,1.105,0.9,1.998,2.005,1.995
		L350.925,104.965z"/>
	<path display="inline" d="M329.327,26.859c0.862-1.331-0.093-3.088-1.678-3.088h-13.153c-0.69,0-1.331,0.356-1.696,0.941
		l-39.557,63.346c-1.652,2.605-2.743,5.041-3.271,7.307h-0.396c-0.661-2.719-1.62-5.116-2.875-7.193l-38.766-63.443
		c-0.363-0.595-1.01-0.957-1.707-0.957h-13.776c-1.577,0-2.534,1.74-1.689,3.072l49.005,77.223c0.367,0.578,1.004,0.928,1.689,0.928
		h16.151c0.678,0,1.31-0.343,1.678-0.912L329.327,26.859z"/>
	<path display="inline" d="M227.636,104.994h13.153c1.586,0,2.541-1.757,1.678-3.088l-50.041-77.223
		c-0.369-0.569-1-0.912-1.678-0.912h-16.151c-0.685,0-1.322,0.35-1.689,0.928l-49.005,77.223c-0.845,1.332,0.112,3.072,1.689,3.072
		h13.776c0.697,0,1.343-0.363,1.707-0.957l38.766-63.443c1.254-2.077,2.213-4.475,2.875-7.193h0.396
		c0.528,2.266,1.619,4.701,3.271,7.307l39.557,63.346C226.305,104.638,226.946,104.994,227.636,104.994z"/>
	<path display="inline" d="M745.758,104.994h13.153c1.586,0,2.541-1.757,1.678-3.088l-50.041-77.223
		c-0.369-0.569-1-0.912-1.678-0.912h-16.151c-0.685,0-1.322,0.35-1.689,0.928l-49.005,77.223c-0.845,1.332,0.112,3.072,1.689,3.072
		h13.776c0.697,0,1.343-0.363,1.707-0.957l38.766-63.443c1.254-2.077,2.213-4.475,2.875-7.193h0.396
		c0.528,2.266,1.619,4.701,3.271,7.307l39.557,63.346C744.427,104.638,745.068,104.994,745.758,104.994z"/>
	<path display="inline" d="M356.93,32.381h65.632c1.158,0,2.096-0.9,2.092-2.007l-0.017-4.61c-0.004-1.102-0.94-1.993-2.092-1.993
		h-80.393c-1.158,0-2.095,0.898-2.092,2.005l0.011,4.6c0.003,1.103,0.939,1.995,2.092,1.995h14.767V32.381z"/>
	<path display="inline" d="M357.014,68.001h65.632c1.158,0,2.096-0.9,2.092-2.007l-0.017-4.61c-0.004-1.102-0.94-1.993-2.092-1.993
		h-80.393c-1.158,0-2.095,0.898-2.092,2.005l0.011,4.6c0.003,1.103,0.939,1.995,2.092,1.995h14.767V68.001z"/>
	<path display="inline" d="M424.854,102.985c0.003,1.107-0.935,2.006-2.092,2.006h-65.629v-0.01h-14.766
		c-1.153,0-2.089-0.892-2.092-1.994l-0.014-4.6c-0.003-1.107,0.935-2.006,2.092-2.006h80.396c1.153,0,2.089,0.892,2.092,1.994
		L424.854,102.985z"/>
	<g display="inline">
		<path d="M542.131,40.611c1.106,0,2.002-0.898,2-2.004l-0.006-2.726v-6.72c0-1.105-0.895-2-2-2h-6.83c-1.105,0-2,0.895-2,2v9.45
			c0,1.105,0.895,2,2,2H542.131z"/>
		<path d="M544.155,88.631c0-1.105-0.895-2-2-2h-6.84c-1.105,0-2,0.895-2,2v7.52c0,1.105,0.895,2,2,2h6.84c1.105,0,2-0.895,2-2
			V88.631z"/>
		<path d="M470.745,40.371c-10.14,6.23-15.21,14.55-15.21,24.97c0,9.9,4.74,17.78,14.22,23.65s21.92,8.81,37.32,8.81
			c9.62,0,18.37-0.82,26.24-2.47c2.87-0.593,5.621-1.3,8.254-2.119c1.282-0.399,2.576,0.567,2.576,1.909v4.966
			c0,0.891-0.582,1.683-1.439,1.925c-10.249,2.898-22.859,4.339-37.811,4.339c-20.22,0-36.41-3.72-48.57-11.16
			c-12.16-7.43-18.24-17.19-18.24-29.28c0-12.99,6.84-23.49,20.52-31.49c13.68-8.01,31.03-12.01,52.04-12.01
			c12.714,0,23.372,0.996,31.968,2.972c0.903,0.208,1.532,1.022,1.532,1.949v8.559c-0.01,0-0.01,0-0.02-0.01
			c-3.48-1.11-7.09-2.03-10.83-2.76c-7.16-1.4-14.78-2.1-22.85-2.1C494.125,31.021,480.895,34.141,470.745,40.371z"/>
	</g>
	<g display="inline">
		<path fill="#FFFFFF" d="M55.334,454.61l52.577-33.611c1.684-1.077,0.922-3.685-1.077-3.685H93.57
			c-0.395,0-0.781,0.117-1.109,0.336l-52.626,35.064c-1.59,1.02-2.84,1.95-3.77,2.78h-0.03v3.06h0.03c0.46,0.49,1.72,1.43,3.77,2.83
			l54.402,36.807c0.331,0.224,0.721,0.344,1.121,0.344h15.811c1.992,0,2.76-2.595,1.087-3.679l-56.933-36.882
			C54.102,457.182,54.108,455.393,55.334,454.61z"/>
		<path fill="#FFFFFF" d="M573.113,454.612l52.577-33.611c1.684-1.077,0.922-3.685-1.077-3.685H611.35
			c-0.395,0-0.781,0.117-1.109,0.336l-52.626,35.064c-1.59,1.02-2.84,1.95-3.77,2.78h-0.03v3.06h0.03c0.46,0.49,1.72,1.43,3.77,2.83
			l54.402,36.807c0.331,0.224,0.721,0.344,1.121,0.344h15.811c1.992,0,2.76-2.595,1.087-3.679l-56.933-36.882
			C571.882,457.184,571.887,455.395,573.113,454.612z"/>
		<path fill="#FFFFFF" d="M30.372,419.284l0.18,77.22c0.003,1.105-0.891,2.002-1.995,2.005l-8.681,0.02
			c-1.105,0.003-2.002-0.891-2.005-1.995l-0.18-77.22c-0.003-1.105,0.891-2.002,1.995-2.005l8.681-0.02
			C29.472,417.286,30.369,418.18,30.372,419.284z"/>
		<path fill="#FFFFFF" d="M350.75,425.914h-8.68c-1.103,0-1.997-0.893-2-1.995l-0.011-4.605c-0.003-1.105,0.891-2.002,1.995-2.005
			l10.68-0.025v0.03l0.015,6.595C352.753,425.015,351.857,425.914,350.75,425.914z"/>
		<path fill="#FFFFFF" d="M350.925,498.508l-8.68,0.021c-1.104,0.003-2.002-0.891-2.005-1.995l-0.085-35l-0.015-6.595
			c-0.003-1.106,0.894-2.005,2-2.005h8.68c1.103,0,1.997,0.893,2,1.995l0.015,6.605l0.085,34.97
			C352.923,497.608,352.03,498.506,350.925,498.508z"/>
		<path fill="#FFFFFF" d="M329.327,420.402l-50.041,77.223c-0.369,0.569-1,0.912-1.678,0.912h-16.151
			c-0.685,0-1.322-0.35-1.689-0.928l-49.005-77.223c-0.845-1.332,0.112-3.072,1.689-3.072h13.776c0.697,0,1.343,0.363,1.707,0.957
			l38.766,63.443c1.254,2.077,2.213,4.475,2.875,7.193h0.396c0.528-2.266,1.619-4.701,3.271-7.307l39.557-63.346
			c0.365-0.585,1.007-0.941,1.696-0.941h13.153C329.234,417.314,330.189,419.071,329.327,420.402z"/>
		<path fill="#FFFFFF" d="M227.636,498.537c-0.69,0-1.331-0.356-1.696-0.941l-39.557-63.346c-1.652-2.605-2.743-5.041-3.271-7.307
			h-0.396c-0.661,2.719-1.62,5.116-2.875,7.193l-38.766,63.443c-0.363,0.595-1.01,0.957-1.707,0.957h-13.776
			c-1.577,0-2.534-1.74-1.689-3.072l49.005-77.223c0.367-0.578,1.004-0.928,1.689-0.928h16.151c0.678,0,1.31,0.343,1.678,0.912
			l50.041,77.223c0.862,1.331-0.093,3.088-1.678,3.088H227.636z"/>
		<path fill="#FFFFFF" d="M745.758,498.537c-0.69,0-1.331-0.356-1.696-0.941l-39.557-63.346c-1.652-2.605-2.743-5.041-3.271-7.307
			h-0.396c-0.661,2.719-1.62,5.116-2.875,7.193l-38.766,63.443c-0.363,0.595-1.01,0.957-1.707,0.957h-13.776
			c-1.577,0-2.534-1.74-1.689-3.072l49.005-77.223c0.367-0.578,1.004-0.928,1.689-0.928h16.151c0.678,0,1.31,0.343,1.678,0.912
			l50.041,77.223c0.862,1.331-0.093,3.088-1.678,3.088H745.758z"/>
		<path fill="#FFFFFF" d="M356.93,425.924v-0.01h-14.767c-1.154,0-2.09-0.893-2.092-1.995l-0.011-4.6
			c-0.003-1.106,0.935-2.005,2.092-2.005h80.393c1.153,0,2.088,0.891,2.092,1.993l0.017,4.61c0.004,1.107-0.934,2.007-2.092,2.007
			H356.93z"/>
		<path fill="#FFFFFF" d="M357.014,461.544v-0.01h-14.767c-1.154,0-2.09-0.893-2.092-1.995l-0.011-4.6
			c-0.003-1.106,0.935-2.005,2.092-2.005h80.393c1.153,0,2.088,0.891,2.092,1.993l0.017,4.61c0.004,1.107-0.934,2.007-2.092,2.007
			H357.014z"/>
		<path fill="#FFFFFF" d="M424.854,496.528l-0.014-4.61c-0.003-1.102-0.939-1.994-2.092-1.994h-80.396
			c-1.158,0-2.096,0.899-2.092,2.006l0.014,4.6c0.003,1.102,0.939,1.994,2.092,1.994h14.766v0.01h65.629
			C423.919,498.534,424.857,497.635,424.854,496.528z"/>
		<g>
			<path fill="#FFFFFF" d="M542.131,434.154h-6.836c-1.105,0-2-0.895-2-2v-9.45c0-1.105,0.895-2,2-2h6.83c1.105,0,2,0.895,2,2v6.72
				l0.006,2.726C544.133,433.256,543.237,434.154,542.131,434.154z"/>
			<path fill="#FFFFFF" d="M544.155,482.174v7.52c0,1.105-0.895,2-2,2h-6.84c-1.105,0-2-0.895-2-2v-7.52c0-1.105,0.895-2,2-2h6.84
				C543.26,480.174,544.155,481.069,544.155,482.174z"/>
			<path fill="#FFFFFF" d="M470.745,433.914c10.15-6.23,23.38-9.35,39.7-9.35c8.07,0,15.69,0.7,22.85,2.1
				c3.74,0.73,7.35,1.65,10.83,2.76c0.01,0.01,0.01,0.01,0.02,0.01v-8.559c0-0.927-0.629-1.741-1.532-1.949
				c-8.596-1.976-19.254-2.972-31.968-2.972c-21.01,0-38.36,4-52.04,12.01c-13.68,8-20.52,18.5-20.52,31.49
				c0,12.09,6.08,21.85,18.24,29.28c12.16,7.44,28.35,11.16,48.57,11.16c14.953,0,27.562-1.44,37.811-4.339
				c0.857-0.242,1.439-1.034,1.439-1.925v-4.966c0-1.342-1.294-2.308-2.576-1.909c-2.633,0.819-5.384,1.526-8.254,2.119
				c-7.87,1.65-16.62,2.47-26.24,2.47c-15.4,0-27.84-2.94-37.32-8.81s-14.22-13.75-14.22-23.65
				C455.535,448.464,460.605,440.144,470.745,433.914z"/>
		</g>
	</g>
</g>
<g id="Layer_2">
	<path fill="#FFFFFF" d="M27.62,107.662h-9c-1.105,0-2-0.895-2-2l0-82.113c0-1.105,0.895-2,2-2h9c1.105,0,2,0.895,2,2l0,82.113
		C29.62,106.767,28.725,107.662,27.62,107.662z"/>
	<g>
		<path fill="#FFFFFF" d="M115.695,107.658H99.592c-0.398,0-0.786-0.118-1.116-0.34L35.921,65.258
			c-1.179-0.793-1.179-2.528,0.001-3.32l59.624-40.051c0.33-0.221,0.718-0.34,1.115-0.34h16.156c1.974,0,2.755,2.557,1.117,3.659
			L59.23,62.017c-1.179,0.793-1.178,2.528,0.002,3.32l57.578,38.661C118.45,105.099,117.671,107.658,115.695,107.658z"/>
	</g>
	<g>
		<path fill="#FFFFFF" d="M631.919,107.658h-16.054c-0.4,0-0.79-0.12-1.121-0.344l-62.122-42.051
			c-1.175-0.796-1.171-2.529,0.008-3.318l59.836-40.059c0.329-0.22,0.716-0.338,1.113-0.338h16.185c1.976,0,2.755,2.561,1.113,3.661
			l-54.939,36.815c-1.179,0.79-1.183,2.522-0.008,3.318l57.11,38.659C634.673,105.107,633.891,107.658,631.919,107.658z"/>
	</g>
	<path fill="#FFFFFF" d="M245.775,107.658h-10.738c-0.677,0-1.308-0.342-1.677-0.91l-46.44-71.414
		c-0.792-1.217-2.576-1.212-3.36,0.01l-45.798,71.394c-0.368,0.573-1.002,0.92-1.683,0.92h-10.688c-1.581,0-2.537-1.749-1.683-3.08
		l52.674-82.11c0.368-0.573,1.002-0.92,1.683-0.92h14.292c0.677,0,1.307,0.342,1.676,0.909l53.418,82.11
		C248.317,105.898,247.362,107.658,245.775,107.658z"/>
	<path fill="#FFFFFF" d="M762.439,107.658h-10.73c-0.677,0-1.309-0.343-1.678-0.911l-46.332-71.409
		c-0.791-1.219-2.576-1.214-3.361,0.008l-45.816,71.392c-0.368,0.573-1.002,0.92-1.683,0.92h-9.693c-1.582,0-2.537-1.749-1.683-3.08
		l52.699-82.11c0.368-0.573,1.002-0.92,1.683-0.92h13.281c0.677,0,1.309,0.343,1.677,0.911l53.313,82.11
		C764.98,105.899,764.025,107.658,762.439,107.658z"/>
	<path fill="#FFFFFF" d="M331.576,24.637l-53.313,82.11c-0.369,0.568-1,0.911-1.677,0.911h-13.73c-0.682,0-1.316-0.347-1.684-0.921
		l-52.617-82.11c-0.853-1.331,0.103-3.079,1.684-3.079h10.689c0.682,0,1.317,0.347,1.684,0.921l45.457,70.976
		c0.784,1.224,2.571,1.229,3.362,0.01l46.07-70.996c0.369-0.568,1-0.911,1.678-0.911h10.72
		C331.485,21.548,332.44,23.306,331.576,24.637z"/>
	<path fill="#FFFFFF" d="M422.854,34.576H342.06c-1.105,0-2-0.895-2-2v-9c0-1.105,0.895-2,2-2h80.794c1.105,0,2,0.895,2,2v9
		C424.854,33.68,423.959,34.576,422.854,34.576z"/>
	<path fill="#FFFFFF" d="M353.262,72.198v19.49c0,1.105,0.895,2,2,2h67.39c1.105,0,2,0.895,2,2v10c0,1.105-0.895,2-2,2h-80.39
		c-1.105,0-2-0.895-2-2v-46.49c0-1.105,0.895-2,2-2h80.39c1.105,0,2,0.895,2,2v9c0,1.105-0.895,2-2,2h-67.39
		C354.157,70.198,353.262,71.093,353.262,72.198z"/>
	<path fill="#FFFFFF" d="M542.131,40.611c1.106,0,2.002-0.898,2-2.004l-0.006-2.726v-6.72c0-1.105-0.895-2-2-2h-6.83
		c-1.105,0-2,0.895-2,2v9.45c0,1.105,0.895,2,2,2H542.131z"/>
	<path fill="#FFFFFF" d="M544.155,88.631c0-1.105-0.895-2-2-2h-6.84c-1.105,0-2,0.895-2,2v7.52c0,1.105,0.895,2,2,2h6.84
		c1.105,0,2-0.895,2-2V88.631z"/>
	<path fill="#FFFFFF" d="M470.745,40.371c-10.14,6.23-15.21,14.55-15.21,24.97c0,9.9,4.74,17.78,14.22,23.65s21.92,8.81,37.32,8.81
		c9.62,0,18.37-0.82,26.24-2.47c2.87-0.593,5.621-1.3,8.254-2.119c1.282-0.399,2.576,0.567,2.576,1.909v4.966
		c0,0.891-0.582,1.683-1.439,1.925c-10.249,2.898-22.859,4.339-37.811,4.339c-20.22,0-36.41-3.72-48.57-11.16
		c-12.16-7.43-18.24-17.19-18.24-29.28c0-12.99,6.84-23.49,20.52-31.49c13.68-8.01,31.03-12.01,52.04-12.01
		c12.714,0,23.372,0.996,31.968,2.972c0.903,0.208,1.532,1.022,1.532,1.949v8.559c-0.01,0-0.01,0-0.02-0.01
		c-3.48-1.11-7.09-2.03-10.83-2.76c-7.16-1.4-14.78-2.1-22.85-2.1C494.125,31.021,480.895,34.141,470.745,40.371z"/>
	<g>
		<path fill="#FFFFFF" d="M358.413,124.963c0-0.797,0.193-1.382,0.58-1.753c0.386-0.37,0.87-0.556,1.45-0.556
			c0.552,0,1.028,0.188,1.429,0.566c0.4,0.378,0.601,0.959,0.601,1.742c0,0.784-0.2,1.369-0.601,1.754
			c-0.401,0.385-0.877,0.577-1.429,0.577c-0.58,0-1.063-0.192-1.45-0.577C358.606,126.332,358.413,125.747,358.413,124.963z
			 M362.141,154.211h-3.438V131.2h3.438V154.211z"/>
		<path fill="#FFFFFF" d="M401.931,154.211v-14.887c0-1.875-0.422-3.275-1.264-4.199c-0.843-0.924-2.161-1.385-3.956-1.385
			c-2.375,0-4.114,0.65-5.219,1.952c-1.105,1.302-1.657,3.45-1.657,6.446v12.072h-3.438V131.2h2.796l0.559,3.149h0.166
			c0.704-1.134,1.691-2.012,2.962-2.635c1.27-0.623,2.685-0.935,4.245-0.935c2.734,0,4.791,0.669,6.172,2.005
			c1.381,1.337,2.071,3.476,2.071,6.415v15.012H401.931z"/>
		<path fill="#FFFFFF" d="M434.369,154.211l-8.616-23.012h3.687l4.888,13.647c1.104,3.191,1.754,5.263,1.947,6.215h0.165
			c0.152-0.742,0.632-2.278,1.439-4.608c0.808-2.331,2.62-7.415,5.437-15.254h3.687l-8.615,23.012H434.369z"/>
		<path fill="#FFFFFF" d="M477.204,154.631c-3.355,0-6.003-1.036-7.942-3.107c-1.94-2.071-2.91-4.948-2.91-8.629
			c0-3.71,0.9-6.656,2.703-8.84c1.802-2.184,4.221-3.275,7.259-3.275c2.844,0,5.095,0.948,6.752,2.845
			c1.656,1.897,2.485,4.399,2.485,7.507v2.204h-15.637c0.068,2.701,0.742,4.752,2.019,6.151c1.277,1.4,3.076,2.1,5.396,2.1
			c2.444,0,4.86-0.518,7.249-1.553v3.107c-1.215,0.531-2.364,0.913-3.448,1.144C480.044,154.516,478.736,154.631,477.204,154.631z
			 M476.272,133.698c-1.823,0-3.276,0.603-4.36,1.807c-1.084,1.203-1.723,2.869-1.915,4.996h11.867c0-2.197-0.483-3.88-1.45-5.049
			S478.066,133.698,476.272,133.698z"/>
		<path fill="#FFFFFF" d="M523.02,147.934c0,2.141-0.787,3.793-2.361,4.955c-1.574,1.161-3.783,1.742-6.628,1.742
			c-3.01,0-5.357-0.482-7.041-1.449v-3.232c1.09,0.56,2.261,1,3.51,1.322c1.25,0.322,2.455,0.482,3.614,0.482
			c1.795,0,3.176-0.29,4.143-0.871c0.966-0.58,1.449-1.466,1.449-2.656c0-0.896-0.383-1.661-1.149-2.299
			c-0.766-0.637-2.261-1.389-4.483-2.257c-2.112-0.798-3.614-1.494-4.505-2.089s-1.554-1.271-1.988-2.026s-0.652-1.659-0.652-2.708
			c0-1.876,0.752-3.356,2.258-4.441c1.505-1.084,3.568-1.627,6.192-1.627c2.443,0,4.832,0.504,7.166,1.512l-1.222,2.834
			c-2.278-0.951-4.343-1.428-6.193-1.428c-1.629,0-2.857,0.26-3.687,0.777c-0.828,0.518-1.242,1.231-1.242,2.142
			c0,0.616,0.155,1.141,0.466,1.575c0.311,0.434,0.812,0.847,1.502,1.238s2.016,0.959,3.977,1.701
			c2.692,0.993,4.511,1.994,5.457,3.002C522.546,145.141,523.02,146.408,523.02,147.934z"/>
		<path fill="#FFFFFF" d="M552.91,151.754c0.607,0,1.194-0.045,1.761-0.136s1.015-0.186,1.346-0.284v2.667
			c-0.372,0.182-0.921,0.332-1.646,0.451c-0.725,0.119-1.377,0.179-1.957,0.179c-4.391,0-6.586-2.345-6.586-7.033v-13.689h-3.252
			v-1.68l3.252-1.449l1.45-4.913h1.988v5.333h6.586v2.709h-6.586v13.542c0,1.386,0.324,2.449,0.973,3.191
			C550.887,151.384,551.778,151.754,552.91,151.754z"/>
		<path fill="#FFFFFF" d="M606.452,154.211v-14.971c0-1.833-0.387-3.208-1.159-4.125c-0.773-0.917-1.975-1.375-3.604-1.375
			c-2.14,0-3.721,0.622-4.742,1.868c-1.022,1.246-1.533,3.163-1.533,5.753v12.85h-3.438v-14.971c0-1.833-0.387-3.208-1.16-4.125
			s-1.981-1.375-3.624-1.375c-2.154,0-3.731,0.654-4.732,1.963c-1.002,1.309-1.502,3.453-1.502,6.436v12.072h-3.438V131.2h2.796
			l0.559,3.149h0.166c0.648-1.12,1.563-1.995,2.744-2.624c1.181-0.631,2.503-0.945,3.966-0.945c3.549,0,5.868,1.302,6.959,3.905
			h0.166c0.677-1.204,1.657-2.155,2.94-2.855c1.284-0.7,2.748-1.05,4.392-1.05c2.567,0,4.49,0.669,5.768,2.005
			c1.277,1.337,1.916,3.476,1.916,6.415v15.012H606.452z"/>
		<path fill="#FFFFFF" d="M643.529,154.631c-3.355,0-6.003-1.036-7.942-3.107c-1.94-2.071-2.91-4.948-2.91-8.629
			c0-3.71,0.9-6.656,2.703-8.84c1.802-2.184,4.221-3.275,7.259-3.275c2.844,0,5.095,0.948,6.752,2.845
			c1.656,1.897,2.485,4.399,2.485,7.507v2.204h-15.637c0.068,2.701,0.742,4.752,2.019,6.151c1.277,1.4,3.076,2.1,5.396,2.1
			c2.444,0,4.86-0.518,7.249-1.553v3.107c-1.215,0.531-2.364,0.913-3.448,1.144C646.37,154.516,645.061,154.631,643.529,154.631z
			 M642.597,133.698c-1.823,0-3.276,0.603-4.36,1.807c-1.084,1.203-1.723,2.869-1.915,4.996h11.867c0-2.197-0.483-3.88-1.45-5.049
			S644.391,133.698,642.597,133.698z"/>
		<path fill="#FFFFFF" d="M690.237,154.211v-14.887c0-1.875-0.422-3.275-1.264-4.199c-0.843-0.924-2.161-1.385-3.956-1.385
			c-2.375,0-4.114,0.65-5.219,1.952c-1.105,1.302-1.657,3.45-1.657,6.446v12.072h-3.438V131.2h2.796l0.559,3.149h0.166
			c0.704-1.134,1.691-2.012,2.962-2.635c1.27-0.623,2.685-0.935,4.245-0.935c2.734,0,4.791,0.669,6.172,2.005
			c1.381,1.337,2.071,3.476,2.071,6.415v15.012H690.237z"/>
		<path fill="#FFFFFF" d="M725.035,151.754c0.607,0,1.194-0.045,1.761-0.136s1.015-0.186,1.346-0.284v2.667
			c-0.372,0.182-0.921,0.332-1.646,0.451c-0.725,0.119-1.377,0.179-1.957,0.179c-4.391,0-6.586-2.345-6.586-7.033v-13.689H714.7
			v-1.68l3.252-1.449l1.45-4.913h1.988v5.333h6.586v2.709h-6.586v13.542c0,1.386,0.324,2.449,0.973,3.191
			C723.012,151.384,723.903,151.754,725.035,151.754z"/>
		<path fill="#FFFFFF" d="M764.287,147.934c0,2.141-0.787,3.793-2.361,4.955c-1.574,1.161-3.783,1.742-6.628,1.742
			c-3.01,0-5.357-0.482-7.041-1.449v-3.232c1.09,0.56,2.261,1,3.51,1.322c1.25,0.322,2.455,0.482,3.614,0.482
			c1.795,0,3.176-0.29,4.143-0.871c0.966-0.58,1.449-1.466,1.449-2.656c0-0.896-0.383-1.661-1.149-2.299
			c-0.766-0.637-2.261-1.389-4.483-2.257c-2.112-0.798-3.614-1.494-4.505-2.089s-1.554-1.271-1.988-2.026s-0.652-1.659-0.652-2.708
			c0-1.876,0.752-3.356,2.258-4.441c1.505-1.084,3.568-1.627,6.192-1.627c2.443,0,4.832,0.504,7.166,1.512l-1.222,2.834
			c-2.278-0.951-4.343-1.428-6.193-1.428c-1.629,0-2.857,0.26-3.687,0.777c-0.828,0.518-1.242,1.231-1.242,2.142
			c0,0.616,0.155,1.141,0.466,1.575c0.311,0.434,0.812,0.847,1.502,1.238s2.016,0.959,3.977,1.701
			c2.692,0.993,4.511,1.994,5.457,3.002C763.813,145.141,764.287,146.408,764.287,147.934z"/>
	</g>
</g>
</svg>
