<?xml version="1.0" encoding="utf-8"?>
<!-- Generator: Adobe Illustrator 23.0.1, SVG Export Plug-In . SVG Version: 6.00 Build 0)  -->
<svg version="1.1" xmlns="http://www.w3.org/2000/svg" xmlns:xlink="http://www.w3.org/1999/xlink" x="0px" y="0px"
	 viewBox="0 0 161 19.2" style="enable-background:new 0 0 161 19.2;" xml:space="preserve">
<style type="text/css">
	.st0{stroke:#FFFFFF;stroke-miterlimit:10;}
	.st1{display:none;}
	.st2{display:inline;}
	.st3{display:inline;fill:none;}
	.st4{fill:#3D3D3D;}
	.st5{font-family:'KhmerUI';}
	.st6{font-size:23.8403px;}
	.st7{fill:#469AD4;}
	.st8{letter-spacing:-2.9;}
	.st9{letter-spacing:-1.7;}
	.st10{letter-spacing:-1;}
	.st11{display:inline;fill:#706C6C;}
	.st12{font-family:'SoftLine';}
	.st13{font-size:8.4263px;}
	.st14{letter-spacing:1;}
	.st15{fill:#FFFFFF;}
	.st16{fill:#6F45BF;}
</style>
<g id="Layer_2">
	<rect x="-29.4" y="-43.6" class="st0" width="215.7" height="88.6"/>
</g>
<g id="Layer_1">
	<g id="Layer_1_1_" class="st1">
		<rect x="-23.4" y="52.6" class="st2" width="202.4" height="79.1"/>
		<rect x="-4.9" y="-13.2" class="st3" width="164.4" height="18.5"/>
		<g class="st2">
			<text transform="matrix(1.75 0 0 1 -2.6206 4.4808)" class="st4 st5 st6">K</text>
			<text transform="matrix(1.75 0 0 1 21.5806 4.4808)" class="st7 st5 st6 st8">A</text>
			<text transform="matrix(1.75 0 0 1 42.2329 4.4808)" class="st4 st5 st6 st9">V</text>
			<text transform="matrix(2 0 0 1 63.9736 4.4813)" class="st4 st5 st6 st10">E</text>
			<text transform="matrix(1.75 0 0 1 84.5166 4.4808)" class="st4 st5 st6 st9">C</text>
			<text transform="matrix(1.75 0 0 1 106.1758 4.4808)" class="st4 st5 st6">KA</text>
		</g>
		<rect x="9.5" y="7.6" class="st3" width="146.1" height="19.2"/>
		<text transform="matrix(1 0 0 1 73.9976 13.4321)" class="st11 st12 st13 st14">investments</text>
		<rect x="-1.1" y="-13.2" class="st3" width="164.4" height="18.5"/>
		<g class="st2">
			<text transform="matrix(1.75 0 0 1 1.1309 4.4808)" class="st4 st5 st6">K</text>
			<text transform="matrix(1.75 0 0 1 25.332 4.4808)" class="st7 st5 st6 st8">A</text>
			<text transform="matrix(1.75 0 0 1 45.9844 4.4808)" class="st4 st5 st6 st9">V</text>
			<text transform="matrix(2 0 0 1 67.7251 4.4813)" class="st4 st5 st6 st10">E</text>
			<text transform="matrix(1.75 0 0 1 88.2686 4.4808)" class="st4 st5 st6 st9">C</text>
			<text transform="matrix(1.75 0 0 1 109.9277 4.4808)" class="st4 st5 st6">KA</text>
		</g>
		<rect x="9.5" y="7.6" class="st3" width="146.1" height="19.2"/>
		<text transform="matrix(1 0 0 1 73.9976 13.4321)" class="st11 st12 st13 st14">investments</text>
		<polygon class="st11" points="41,-2.3 40.5,-3.1 40.5,-3.1 		"/>
		<rect x="2.4" y="7.6" class="st3" width="153.2" height="19.2"/>
		<text transform="matrix(1 0 0 1 44.6206 13.4321)" class="st2 st12 st13 st14">investments</text>
		<rect x="2.4" y="118.3" class="st3" width="153.2" height="19.2"/>
		<text transform="matrix(1 0 0 1 44.6206 124.0996)" class="st12 st13 st14" style="display:inline;fill:#469AD4;">investments</text>
		
			<text transform="matrix(0.9864 0 0 1 72.9717 28.1854)" style="display:inline;fill:#6D6D6D; font-family:'OpenSans'; font-size:8.8373px; letter-spacing:2;">investments</text>
		
			<text transform="matrix(0.9864 0 0 1 72.9717 109.4676)" style="display:inline;fill:#50C8EC; font-family:'OpenSans'; font-size:8.8373px; letter-spacing:2;">investments</text>
		<path class="st2" d="M11.4,9c-0.3,0.2-0.3,0.5,0,0.7l11.7,7.6c0.3,0.2,0.2,0.8-0.2,0.8h-3.3c-0.1,0-0.2,0-0.2-0.1L8.2,10.4
			C7.8,10.1,7.5,10,7.4,9.9h0V9.2h0c0.2-0.2,0.4-0.4,0.8-0.6L19,1.4c0.1,0,0.1-0.1,0.2-0.1H22c0.4,0,0.6,0.5,0.2,0.8L11.4,9z"/>
		<path class="st2" d="M117.8,9c-0.3,0.2-0.3,0.5,0,0.7l11.7,7.6c0.3,0.2,0.2,0.8-0.2,0.8H126c-0.1,0-0.2,0-0.2-0.1l-11.2-7.6
			c-0.4-0.3-0.7-0.5-0.8-0.6h0V9.2h0c0.2-0.2,0.4-0.4,0.8-0.6l10.8-7.2c0.1,0,0.1-0.1,0.2-0.1h2.7c0.4,0,0.6,0.5,0.2,0.8L117.8,9z"
			/>
		<path class="st2" d="M6.2,1.8c0-0.2-0.2-0.4-0.4-0.4L4,1.4c-0.2,0-0.4,0.2-0.4,0.4l0,15.9c0,0.2,0.2,0.4,0.4,0.4l1.8,0
			c0.2,0,0.4-0.2,0.4-0.4L6.2,1.8z"/>
		<path class="st2" d="M72.1,3.1c0.2,0,0.4-0.2,0.4-0.4l0-1.4v0l-2.2,0c-0.2,0-0.4,0.2-0.4,0.4l0,0.9c0,0.2,0.2,0.4,0.4,0.4H72.1z"
			/>
		<path class="st2" d="M72.1,18.1c0.2,0,0.4-0.2,0.4-0.4l0-7.2l0-1.4c0-0.2-0.2-0.4-0.4-0.4h-1.8c-0.2,0-0.4,0.2-0.4,0.4l0,1.4
			l0,7.2c0,0.2,0.2,0.4,0.4,0.4L72.1,18.1z"/>
		<path class="st2" d="M67.7,2c0.2-0.3,0-0.6-0.3-0.6h-2.7c-0.1,0-0.3,0.1-0.3,0.2l-8.1,13c-0.3,0.5-0.6,1-0.7,1.5h-0.1
			c-0.1-0.6-0.3-1.1-0.6-1.5l-8-13c-0.1-0.1-0.2-0.2-0.4-0.2h-2.8c-0.3,0-0.5,0.4-0.3,0.6l10.1,15.9c0.1,0.1,0.2,0.2,0.3,0.2h3.3
			c0.1,0,0.3-0.1,0.3-0.2L67.7,2z"/>
		<path class="st2" d="M46.8,18.1h2.7c0.3,0,0.5-0.4,0.3-0.6L39.5,1.6c-0.1-0.1-0.2-0.2-0.3-0.2h-3.3c-0.1,0-0.3,0.1-0.3,0.2
			L25.5,17.4c-0.2,0.3,0,0.6,0.3,0.6h2.8c0.1,0,0.3-0.1,0.4-0.2l8-13c0.3-0.4,0.5-0.9,0.6-1.5h0.1c0.1,0.5,0.3,1,0.7,1.5l8.1,13
			C46.5,18,46.6,18.1,46.8,18.1z"/>
		<path class="st2" d="M153.3,18.1h2.7c0.3,0,0.5-0.4,0.3-0.6L146,1.6c-0.1-0.1-0.2-0.2-0.3-0.2h-3.3c-0.1,0-0.3,0.1-0.3,0.2
			l-10.1,15.9c-0.2,0.3,0,0.6,0.3,0.6h2.8c0.1,0,0.3-0.1,0.4-0.2l8-13c0.3-0.4,0.5-0.9,0.6-1.5h0.1c0.1,0.5,0.3,1,0.7,1.5l8.1,13
			C153,18,153.1,18.1,153.3,18.1z"/>
		<path class="st2" d="M73.4,3.1h13.5c0.2,0,0.4-0.2,0.4-0.4l0-0.9c0-0.2-0.2-0.4-0.4-0.4H70.3c-0.2,0-0.4,0.2-0.4,0.4l0,0.9
			c0,0.2,0.2,0.4,0.4,0.4L73.4,3.1L73.4,3.1z"/>
		<path class="st2" d="M73.4,10.5h13.5c0.2,0,0.4-0.2,0.4-0.4l0-0.9c0-0.2-0.2-0.4-0.4-0.4H70.3c-0.2,0-0.4,0.2-0.4,0.4l0,0.9
			c0,0.2,0.2,0.4,0.4,0.4L73.4,10.5L73.4,10.5L73.4,10.5z"/>
		<path class="st2" d="M87.3,17.7c0,0.2-0.2,0.4-0.4,0.4H73.4v0h-3c-0.2,0-0.4-0.2-0.4-0.4l0-0.9c0-0.2,0.2-0.4,0.4-0.4h16.5
			c0.2,0,0.4,0.2,0.4,0.4L87.3,17.7z"/>
		<g class="st2">
			<path d="M111.4,4.8c0.2,0,0.4-0.2,0.4-0.4l0-0.6V2.5c0-0.2-0.2-0.4-0.4-0.4H110c-0.2,0-0.4,0.2-0.4,0.4v1.9
				c0,0.2,0.2,0.4,0.4,0.4C110,4.8,111.4,4.8,111.4,4.8z"/>
			<path d="M111.8,14.7c0-0.2-0.2-0.4-0.4-0.4H110c-0.2,0-0.4,0.2-0.4,0.4v1.5c0,0.2,0.2,0.4,0.4,0.4h1.4c0.2,0,0.4-0.2,0.4-0.4
				V14.7z"/>
			<path d="M96.7,4.8c-2.1,1.3-3.1,3-3.1,5.1c0,2,1,3.7,2.9,4.9s4.5,1.8,7.7,1.8c2,0,3.8-0.2,5.4-0.5c0.6-0.1,1.2-0.3,1.7-0.4
				c0.3-0.1,0.5,0.1,0.5,0.4v1c0,0.2-0.1,0.3-0.3,0.4c-2.1,0.6-4.7,0.9-7.8,0.9c-4.2,0-7.5-0.8-10-2.3c-2.5-1.5-3.7-3.5-3.7-6
				c0-2.7,1.4-4.8,4.2-6.5c2.8-1.6,6.4-2.5,10.7-2.5c2.6,0,4.8,0.2,6.6,0.6c0.2,0,0.3,0.2,0.3,0.4v1.8c0,0,0,0,0,0
				c-0.7-0.2-1.5-0.4-2.2-0.6c-1.5-0.3-3-0.4-4.7-0.4C101.6,2.9,98.8,3.5,96.7,4.8z"/>
		</g>
		<g class="st2">
			<path class="st15" d="M11.4,89.9L22.2,83c0.3-0.2,0.2-0.8-0.2-0.8h-2.7c-0.1,0-0.2,0-0.2,0.1L8.2,89.5c-0.3,0.2-0.6,0.4-0.8,0.6
				h0v0.6h0c0.1,0.1,0.4,0.3,0.8,0.6l11.2,7.6c0.1,0,0.1,0.1,0.2,0.1h3.2c0.4,0,0.6-0.5,0.2-0.8l-11.7-7.6
				C11.1,90.5,11.1,90.1,11.4,89.9z"/>
			<path class="st15" d="M117.8,89.9l10.8-6.9c0.3-0.2,0.2-0.8-0.2-0.8h-2.7c-0.1,0-0.2,0-0.2,0.1l-10.8,7.2
				c-0.3,0.2-0.6,0.4-0.8,0.6h0v0.6h0c0.1,0.1,0.4,0.3,0.8,0.6l11.2,7.6c0.1,0,0.1,0.1,0.2,0.1h3.3c0.4,0,0.6-0.5,0.2-0.8l-11.7-7.6
				C117.5,90.5,117.5,90.1,117.8,89.9z"/>
			<path class="st15" d="M6.2,82.7l0,15.9c0,0.2-0.2,0.4-0.4,0.4l-1.8,0c-0.2,0-0.4-0.2-0.4-0.4l0-15.9c0-0.2,0.2-0.4,0.4-0.4l1.8,0
				C6.1,82.3,6.2,82.4,6.2,82.7z"/>
			<path class="st15" d="M72.1,84h-1.8c-0.2,0-0.4-0.2-0.4-0.4l0-0.9c0-0.2,0.2-0.4,0.4-0.4l2.2,0v0l0,1.4
				C72.5,83.8,72.3,84,72.1,84z"/>
			<path class="st15" d="M72.1,98.9l-1.8,0c-0.2,0-0.4-0.2-0.4-0.4l0-7.2l0-1.4c0-0.2,0.2-0.4,0.4-0.4h1.8c0.2,0,0.4,0.2,0.4,0.4
				l0,1.4l0,7.2C72.5,98.8,72.3,98.9,72.1,98.9z"/>
			<path class="st15" d="M67.7,82.9L57.4,98.8c-0.1,0.1-0.2,0.2-0.3,0.2h-3.3c-0.1,0-0.3-0.1-0.3-0.2L43.3,82.9
				c-0.2-0.3,0-0.6,0.3-0.6h2.8c0.1,0,0.3,0.1,0.4,0.2l8,13c0.3,0.4,0.5,0.9,0.6,1.5h0.1c0.1-0.5,0.3-1,0.7-1.5l8.1-13
				c0.1-0.1,0.2-0.2,0.3-0.2h2.7C67.7,82.3,67.9,82.6,67.7,82.9z"/>
			<path class="st15" d="M46.8,99c-0.1,0-0.3-0.1-0.3-0.2l-8.1-13c-0.3-0.5-0.6-1-0.7-1.5h-0.1c-0.1,0.6-0.3,1.1-0.6,1.5l-8,13
				c-0.1,0.1-0.2,0.2-0.4,0.2h-2.8c-0.3,0-0.5-0.4-0.3-0.6l10.1-15.9c0.1-0.1,0.2-0.2,0.3-0.2h3.3c0.1,0,0.3,0.1,0.3,0.2l10.3,15.9
				c0.2,0.3,0,0.6-0.3,0.6L46.8,99L46.8,99z"/>
			<path class="st15" d="M153.3,99c-0.1,0-0.3-0.1-0.3-0.2l-8.1-13c-0.3-0.5-0.6-1-0.7-1.5H144c-0.1,0.6-0.3,1.1-0.6,1.5l-8,13
				c-0.1,0.1-0.2,0.2-0.4,0.2h-2.8c-0.3,0-0.5-0.4-0.3-0.6L142,82.4c0.1-0.1,0.2-0.2,0.3-0.2h3.3c0.1,0,0.3,0.1,0.3,0.2l10.3,15.9
				c0.2,0.3,0,0.6-0.3,0.6L153.3,99L153.3,99z"/>
			<path class="st15" d="M73.4,84L73.4,84l-3,0c-0.2,0-0.4-0.2-0.4-0.4l0-0.9c0-0.2,0.2-0.4,0.4-0.4h16.5c0.2,0,0.4,0.2,0.4,0.4
				l0,0.9c0,0.2-0.2,0.4-0.4,0.4L73.4,84L73.4,84z"/>
			<path class="st15" d="M73.4,91.4L73.4,91.4l-3,0c-0.2,0-0.4-0.2-0.4-0.4l0-0.9c0-0.2,0.2-0.4,0.4-0.4h16.5c0.2,0,0.4,0.2,0.4,0.4
				l0,0.9c0,0.2-0.2,0.4-0.4,0.4L73.4,91.4L73.4,91.4z"/>
			<path class="st15" d="M87.3,98.5l0-0.9c0-0.2-0.2-0.4-0.4-0.4H70.4c-0.2,0-0.4,0.2-0.4,0.4l0,0.9c0,0.2,0.2,0.4,0.4,0.4h3v0h13.5
				C87.1,99,87.3,98.8,87.3,98.5z"/>
			<g>
				<path class="st15" d="M111.4,85.7H110c-0.2,0-0.4-0.2-0.4-0.4v-1.9c0-0.2,0.2-0.4,0.4-0.4h1.4c0.2,0,0.4,0.2,0.4,0.4v1.4l0,0.6
					C111.8,85.5,111.6,85.7,111.4,85.7z"/>
				<path class="st15" d="M111.8,95.6v1.5c0,0.2-0.2,0.4-0.4,0.4H110c-0.2,0-0.4-0.2-0.4-0.4v-1.5c0-0.2,0.2-0.4,0.4-0.4h1.4
					C111.7,95.2,111.8,95.4,111.8,95.6z"/>
				<path class="st15" d="M96.7,85.7c2.1-1.3,4.8-1.9,8.2-1.9c1.7,0,3.2,0.1,4.7,0.4c0.8,0.1,1.5,0.3,2.2,0.6c0,0,0,0,0,0V83
					c0-0.2-0.1-0.4-0.3-0.4c-1.8-0.4-4-0.6-6.6-0.6c-4.3,0-7.9,0.8-10.7,2.5c-2.8,1.6-4.2,3.8-4.2,6.5c0,2.5,1.3,4.5,3.7,6
					c2.5,1.5,5.8,2.3,10,2.3c3.1,0,5.7-0.3,7.8-0.9c0.2-0.1,0.3-0.2,0.3-0.4v-1c0-0.3-0.3-0.5-0.5-0.4c-0.5,0.2-1.1,0.3-1.7,0.4
					c-1.6,0.3-3.4,0.5-5.4,0.5c-3.2,0-5.7-0.6-7.7-1.8s-2.9-2.8-2.9-4.9C93.6,88.7,94.7,87,96.7,85.7z"/>
			</g>
		</g>
	</g>
	<path class="st15" d="M5.7,18.6H3.8c-0.2,0-0.4-0.2-0.4-0.4V1.3c0-0.2,0.2-0.4,0.4-0.4h1.8c0.2,0,0.4,0.2,0.4,0.4v16.9
		C6.1,18.4,5.9,18.6,5.7,18.6z"/>
	<g>
		<path class="st15" d="M23.8,18.6h-3.3c-0.1,0-0.2,0-0.2-0.1L7.4,9.9c-0.2-0.2-0.2-0.5,0-0.7L19.6,1c0.1,0,0.1-0.1,0.2-0.1h3.3
			c0.4,0,0.6,0.5,0.2,0.8L12.2,9.2c-0.2,0.2-0.2,0.5,0,0.7L24,17.9C24.3,18.1,24.2,18.6,23.8,18.6z"/>
	</g>
	<g>
		<path class="st15" d="M129.9,18.6h-3.3c-0.1,0-0.2,0-0.2-0.1l-12.8-8.6c-0.2-0.2-0.2-0.5,0-0.7L125.9,1c0.1,0,0.1-0.1,0.2-0.1h3.3
			c0.4,0,0.6,0.5,0.2,0.8l-11.3,7.6c-0.2,0.2-0.2,0.5,0,0.7l11.7,7.9C130.4,18.1,130.3,18.6,129.9,18.6z"/>
	</g>
	<path class="st16" d="M50.5,18.6h-2.2c-0.1,0-0.3-0.1-0.3-0.2L38.4,3.8c-0.2-0.3-0.5-0.2-0.7,0l-9.4,14.7c-0.1,0.1-0.2,0.2-0.3,0.2
		h-2.2c-0.3,0-0.5-0.4-0.3-0.6L36.3,1.1c0.1-0.1,0.2-0.2,0.3-0.2h2.9c0.1,0,0.3,0.1,0.3,0.2l11,16.9C51,18.3,50.8,18.6,50.5,18.6z"
		/>
	<path class="st15" d="M156.7,18.6h-2.2c-0.1,0-0.3-0.1-0.3-0.2l-9.5-14.7c-0.2-0.3-0.5-0.3-0.7,0l-9.4,14.7
		c-0.1,0.1-0.2,0.2-0.3,0.2h-2c-0.3,0-0.5-0.4-0.3-0.6l10.8-16.9c0.1-0.1,0.2-0.2,0.3-0.2h2.7c0.1,0,0.3,0.1,0.3,0.2L157,18
		C157.2,18.3,157,18.6,156.7,18.6z"/>
	<path class="st15" d="M68.1,1.6l-11,16.9c-0.1,0.1-0.2,0.2-0.3,0.2H54c-0.1,0-0.3-0.1-0.3-0.2L42.9,1.6c-0.2-0.3,0-0.6,0.3-0.6h2.2
		c0.1,0,0.3,0.1,0.3,0.2l9.3,14.6c0.2,0.3,0.5,0.3,0.7,0l9.5-14.6c0.1-0.1,0.2-0.2,0.3-0.2h2.2C68.1,0.9,68.3,1.3,68.1,1.6z"/>
	<path class="st15" d="M86.9,3.6H70.3c-0.2,0-0.4-0.2-0.4-0.4V1.3c0-0.2,0.2-0.4,0.4-0.4h16.6c0.2,0,0.4,0.2,0.4,0.4v1.8
		C87.3,3.4,87.1,3.6,86.9,3.6z"/>
	<path class="st15" d="M72.6,11.3v4c0,0.2,0.2,0.4,0.4,0.4h13.8c0.2,0,0.4,0.2,0.4,0.4v2.1c0,0.2-0.2,0.4-0.4,0.4H70.3
		c-0.2,0-0.4-0.2-0.4-0.4V8.7c0-0.2,0.2-0.4,0.4-0.4h16.5c0.2,0,0.4,0.2,0.4,0.4v1.8c0,0.2-0.2,0.4-0.4,0.4H73
		C72.8,10.9,72.6,11.1,72.6,11.3z"/>
	<path class="st15" d="M96.7,4.8c-2.1,1.3-3.1,3-3.1,5.1c0,2,1,3.7,2.9,4.9s4.5,1.8,7.7,1.8c2,0,3.8-0.2,5.4-0.5
		c0.6-0.1,1.2-0.3,1.7-0.4c0.3-0.1,0.5,0.1,0.5,0.4l0,1c0,0.2-0.1,0.3-0.3,0.4c-2.1,0.6-4.7,0.9-7.8,0.9c-4.2,0-7.5-0.8-10-2.3
		c-2.5-1.5-3.7-3.5-3.7-6c0-2.7,1.4-4.8,4.2-6.5c2.8-1.6,6.4-2.5,10.7-2.5c2.6,0,4.8,0.2,6.6,0.6c0.2,0,0.3,0.2,0.3,0.4l0,1.1
		c0,0.4-0.3,0.6-0.6,0.4c-0.7-0.2-0.9-0.2-1.6-0.4c-1.5-0.3-3-0.4-4.7-0.4C101.6,2.9,98.8,3.5,96.7,4.8z"/>
</g>
</svg>
